<svg xmlns="http://www.w3.org/2000/svg" xmlns:xlink="http://www.w3.org/1999/xlink" version="1.1" x="0px" y="0px" viewBox="0 0 96 120" style="enable-background:new 0 0 96 96;" xml:space="preserve"><g><path d="M60.8,25.5c-1.9,0-3.5,1.6-3.5,3.5v38c0,1.9,1.6,3.5,3.5,3.5s3.5-1.6,3.5-3.5V29   C64.3,27.1,62.8,25.5,60.8,25.5z"/><path d="M48,20.5c-1.9,0-3.5,1.6-3.5,3.5v48c0,1.9,1.6,3.5,3.5,3.5s3.5-1.6,3.5-3.5V24   C51.5,22.1,49.9,20.5,48,20.5z"/><path d="M35.2,32.5c-1.9,0-3.5,1.6-3.5,3.5v24c0,1.9,1.6,3.5,3.5,3.5c1.9,0,3.5-1.6,3.5-3.5V36   C38.7,34.1,37.1,32.5,35.2,32.5z"/><path d="M22.3,37.5c-1.9,0-3.5,1.6-3.5,3.5v14c0,1.9,1.6,3.5,3.5,3.5s3.5-1.6,3.5-3.5V41   C25.8,39.1,24.3,37.5,22.3,37.5z"/><path d="M73.7,37.5c-1.9,0-3.5,1.6-3.5,3.5v14c0,1.9,1.6,3.5,3.5,3.5c1.9,0,3.5-1.6,3.5-3.5V41   C77.2,39.1,75.6,37.5,73.7,37.5z"/></g><text x="0" y="111" fill="#000000" font-size="5px" font-weight="bold" font-family="'Helvetica Neue', Helvetica, Arial-Unicode, Arial, Sans-serif">Created by Kuber</text><text x="0" y="116" fill="#000000" font-size="5px" font-weight="bold" font-family="'Helvetica Neue', Helvetica, Arial-Unicode, Arial, Sans-serif">from the Noun Project</text></svg>