<svg xmlns="http://www.w3.org/2000/svg" xmlns:xlink="http://www.w3.org/1999/xlink" version="1.1" x="0px" y="0px" viewBox="0 0 512 640" enable-background="new 0 0 512 512" xml:space="preserve"><g><path fill="#000000" d="M501.653,244.115c-5.748-6.037-12.044-11.649-18.583-16.819c-77.951-61.619-166.578-87.79-265.439-78.864   c-71.716,6.478-136.103,31.844-192.46,76.963c-5.52,4.41-10.858,9.2-15.618,14.416c-7.786,8.516-7.239,18.705,1.87,25.457   c26.643,19.724,53.529,39.158,80.552,58.365c5.292,3.756,11.527,6.326,17.579,8.835c4.197,1.749,8.911,0.608,9.778-4.121   c0.517-2.859-1.429-7.315-3.756-9.367c-22.157-19.587-43.964-37.942-63.839-59.977c36.147-28.939,75.701-48.024,118.767-59.095   c-5.322,12.394-12.166,23.981-15.131,36.482c-3.041,12.804-4.243,26.749-2.631,39.736c1.581,12.728,5.946,25.913,12.348,37.014   c6.524,11.36,15.861,21.807,25.958,30.247c35.007,29.274,88.703,28.954,125.367,0.38c19.313-15.055,31.889-34.581,37.105-58.441   c6.691-30.536,0.198-58.669-19.1-85.813c48.009,12.88,89.098,34.14,126.69,65.117c5.14,4.243-75.275,56.646-71.139,64.265   c3.832,7.056,10.052,2.144,14.66-0.076c33.668-16.195,64.904-36.406,94.846-58.638C509.865,262.47,510.656,253.559,501.653,244.115   z M253.946,293.933c-17.534-0.122-31.524-13.975-31.448-31.144c0.076-17.093,14.34-30.962,31.707-30.855   c17.077,0.122,30.399,13.747,30.414,31.114C284.618,280.201,270.856,294.055,253.946,293.933z"/></g><text x="0" y="527" fill="#000000" font-size="5px" font-weight="bold" font-family="'Helvetica Neue', Helvetica, Arial-Unicode, Arial, Sans-serif">Created by Delwar Hossain</text><text x="0" y="532" fill="#000000" font-size="5px" font-weight="bold" font-family="'Helvetica Neue', Helvetica, Arial-Unicode, Arial, Sans-serif">from the Noun Project</text></svg>