<svg xmlns="http://www.w3.org/2000/svg" xmlns:xlink="http://www.w3.org/1999/xlink" version="1.1" x="0px" y="0px" viewBox="0 0 100 125" style="enable-background:new 0 0 100 100;" xml:space="preserve"><g><g><g><g><path d="M7.8,67.5c-1.6,0-2.8-1.3-2.8-2.8V35.3c0-1.6,1.3-2.8,2.8-2.8s2.8,1.3,2.8,2.8v29.3C10.6,66.2,9.4,67.5,7.8,67.5z"/></g></g></g><g><g><g><path d="M92.2,67.5c-1.6,0-2.8-1.3-2.8-2.8V35.3c0-1.6,1.3-2.8,2.8-2.8c1.6,0,2.8,1.3,2.8,2.8v29.3C95,66.2,93.7,67.5,92.2,67.5      z"/></g></g></g><g><g><g><path d="M25.8,83.9c-1.6,0-2.8-1.3-2.8-2.8V18.9c0-1.6,1.3-2.8,2.8-2.8s2.8,1.3,2.8,2.8v62.2C28.6,82.7,27.3,83.9,25.8,83.9z"/></g></g></g><g><g><g><path d="M74.2,83.9c-1.6,0-2.8-1.3-2.8-2.8V18.9c0-1.6,1.3-2.8,2.8-2.8s2.8,1.3,2.8,2.8v62.2C77,82.7,75.8,83.9,74.2,83.9z"/></g></g></g><g><g><g><path d="M50,95c-1.6,0-2.8-1.3-2.8-2.8V7.8C47.2,6.3,48.4,5,50,5s2.8,1.3,2.8,2.8v84.4C52.8,93.7,51.6,95,50,95z"/></g></g></g></g><text x="0" y="115" fill="#000000" font-size="5px" font-weight="bold" font-family="'Helvetica Neue', Helvetica, Arial-Unicode, Arial, Sans-serif">Created by Royyan Wijaya</text><text x="0" y="120" fill="#000000" font-size="5px" font-weight="bold" font-family="'Helvetica Neue', Helvetica, Arial-Unicode, Arial, Sans-serif">from the Noun Project</text></svg>