<svg xmlns:dc="http://purl.org/dc/elements/1.1/" xmlns:cc="http://creativecommons.org/ns#" xmlns:rdf="http://www.w3.org/1999/02/22-rdf-syntax-ns#" xmlns:svg="http://www.w3.org/2000/svg" xmlns="http://www.w3.org/2000/svg" xmlns:sodipodi="http://sodipodi.sourceforge.net/DTD/sodipodi-0.dtd" xmlns:inkscape="http://www.inkscape.org/namespaces/inkscape" viewBox="0 0 1150.9493 1435.923375" version="1.1" x="0px" y="0px"><g transform="translate(7724.1933,3992.7552)"><path style="" d="m -7174.3437,-2841.7768 c -20.4904,-1.2664 -41.6453,-3.3399 -56.875,-5.5745 -120.7717,-17.7205 -230.7568,-71.8586 -318.5583,-156.8044 -90.8856,-87.9295 -150.3919,-204.438 -168.8656,-330.625 -4.2575,-29.0813 -5.5507,-48.3023 -5.5507,-82.5 0,-34.1977 1.2932,-53.4187 5.5507,-82.5 17.6653,-120.6656 71.8545,-230.7581 156.7989,-318.5583 87.9295,-90.8856 204.438,-150.3919 330.625,-168.8656 29.0813,-4.2575 48.3023,-5.5507 82.5,-5.5507 34.1977,0 53.4187,1.2932 82.5,5.5507 126.187,18.4737 242.6955,77.98 330.625,168.8656 26.5871,27.4809 45.6005,51.0799 66.1988,82.1645 54.0043,81.4971 85.2182,170.4166 94.6107,269.5188 0.847,8.9375 1.5401,31.1562 1.5401,49.375 0,44.4968 -3.0696,75.1726 -11.7847,117.77 -14.7049,71.8748 -45.7252,144.6907 -88.1666,206.9599 -48.3424,70.9268 -114.3253,132.0327 -188.6483,174.7049 -70.9275,40.7226 -153.5258,66.7537 -235.625,74.2578 -15.4629,1.4133 -64.5864,2.5707 -76.875,1.8113 z m 77.8683,-139.7981 c 129.6921,-16.8933 241.2894,-85.7575 312.0851,-192.5808 38.8375,-58.6017 62.0616,-122.512 70.8604,-195 2.2078,-18.1894 2.2078,-75.5606 0,-93.75 -14.4691,-119.2024 -71.0092,-221.8416 -162.6888,-295.3342 -63.2446,-50.6984 -140.8843,-82.6936 -225.625,-92.9795 -18.1894,-2.2079 -75.5606,-2.2079 -93.75,0 -84.7407,10.2859 -162.3804,42.2811 -225.625,92.9795 -91.6796,73.4926 -148.2197,176.1318 -162.6887,295.3342 -2.2079,18.1894 -2.2079,75.5606 0,93.75 14.4671,119.1869 71.0527,221.91 162.6887,295.3384 63.3034,50.7253 146.1995,84.7807 225.625,92.6913 7.5625,0.7532 15.7188,1.5927 18.125,1.8655 10.3498,1.1734 66.5446,-0.4323 80.9933,-2.3144 z m -134.7433,-336.9558 0,-130 80,0 80,0 0,130 0,130 -80,0 -80,0 0,-130 z m 66.6529,-160.0401 c -29.173,-5.2438 -52.491,-25.5496 -62.4086,-54.3469 -2.9747,-8.6374 -3.4398,-11.9319 -3.4398,-24.363 0,-12.4311 0.4651,-15.7256 3.4398,-24.363 8.7197,-25.3191 26.0736,-42.673 51.3927,-51.3927 8.6374,-2.9747 11.9319,-3.4399 24.363,-3.4399 12.4311,0 15.7256,0.4652 24.363,3.4399 25.3191,8.7197 42.673,26.0736 51.3927,51.3927 2.9747,8.6374 3.4399,11.9319 3.4399,24.363 0,12.4311 -0.4652,15.7256 -3.4399,24.363 -8.685,25.2182 -26.2889,42.8787 -51.0149,51.1789 -10.8696,3.6489 -27.6486,5.0445 -38.0879,3.168 z" fill="#000000"/></g><text x="0" y="1163.7387" fill="#000000" font-size="5px" font-weight="bold" font-family="'Helvetica Neue', Helvetica, Arial-Unicode, Arial, Sans-serif"></text><text x="0" y="1168.7387" fill="#000000" font-size="5px" font-weight="bold" font-family="'Helvetica Neue', Helvetica, Arial-Unicode, Arial, Sans-serif"></text></svg>